<svg width="14" height="25" viewBox="0 0 14 25" fill="none" xmlns="http://www.w3.org/2000/svg">
<path d="M9.60756 20.137C9.85093 19.751 9.57351 19.2482 9.11718 19.2482H4.56416C4.10783 19.2482 3.83042 19.751 4.07378 20.137L6.35029 23.748C6.5777 24.1088 7.10364 24.1088 7.33105 23.748L9.60756 20.137Z" fill="#F7A92F"/>
<path d="M4.93355 4.601L2.21105 5.699V6.923L3.71855 6.311V11H4.93355V4.601ZM8.84546 4.5875C7.33796 4.5875 6.13196 5.8115 6.13196 7.85C6.13196 9.8885 7.33796 11.1125 8.84546 11.1125C10.3485 11.1125 11.5635 9.8885 11.5635 7.85C11.5635 5.8115 10.3485 4.5875 8.84546 4.5875ZM8.84546 5.753C9.65546 5.753 10.2945 6.473 10.2945 7.85C10.2945 9.227 9.65546 9.947 8.84546 9.947C8.03996 9.947 7.39646 9.227 7.39646 7.85C7.39646 6.473 8.03996 5.753 8.84546 5.753Z" fill="#F7A92F"/>
</svg>
