<svg width="43" height="43" viewBox="0 0 43 43" fill="none" xmlns="http://www.w3.org/2000/svg">
<path d="M38.9973 22.1072V20.89C38.9973 20.7674 38.9486 20.6497 38.8619 20.563C38.7751 20.4763 38.6575 20.4275 38.5349 20.4275C38.4184 20.4279 38.306 20.3843 38.2203 20.3054C38.1345 20.2265 38.0817 20.1181 38.0724 20.002C38.0327 19.548 37.9731 19.0997 37.8994 18.6571C37.8783 18.5428 37.901 18.4247 37.963 18.3264C38.0251 18.2281 38.1219 18.1567 38.2341 18.1265C38.2928 18.1108 38.3479 18.0835 38.396 18.0465C38.4442 18.0094 38.4846 17.9632 38.5149 17.9105C38.5452 17.8578 38.5648 17.7996 38.5726 17.7393C38.5804 17.679 38.5763 17.6178 38.5604 17.5591L38.2455 16.3817C38.2297 16.3229 38.2025 16.2679 38.1654 16.2197C38.1283 16.1716 38.0821 16.1312 38.0294 16.1009C37.9767 16.0706 37.9186 16.0509 37.8583 16.0431C37.798 16.0353 37.7368 16.0395 37.6781 16.0554C37.5652 16.0886 37.4438 16.0779 37.3385 16.0252C37.2333 15.9726 37.1518 15.882 37.1107 15.7717C36.9547 15.3461 36.7816 14.9205 36.5944 14.5176C36.5437 14.413 36.5346 14.2931 36.5688 14.182C36.603 14.0709 36.678 13.9769 36.7788 13.9189C36.8316 13.8887 36.8779 13.8482 36.915 13.8C36.9522 13.7518 36.9794 13.6967 36.9952 13.6379C37.011 13.5792 37.0151 13.5178 37.0072 13.4575C36.9992 13.3971 36.9795 13.3389 36.949 13.2862L36.3419 12.228C36.3116 12.1751 36.2712 12.1288 36.2229 12.0917C36.1746 12.0546 36.1194 12.0275 36.0605 12.0119C36.0017 11.9964 35.9403 11.9927 35.88 12.001C35.8197 12.0093 35.7616 12.0296 35.7092 12.0606C35.608 12.1175 35.4893 12.1349 35.376 12.1092C35.2628 12.0835 35.1631 12.0166 35.0964 11.9215C34.8354 11.5527 34.5602 11.1943 34.2709 10.8462C34.1951 10.758 34.1554 10.6445 34.1596 10.5283C34.1638 10.4121 34.2116 10.3017 34.2936 10.2192C34.3367 10.1762 34.3709 10.1252 34.3943 10.0689C34.4177 10.0127 34.4297 9.9524 34.4297 9.8915C34.4297 9.83061 34.4177 9.77031 34.3943 9.71408C34.3709 9.65784 34.3367 9.60677 34.2936 9.56381L33.4425 8.71264C33.3995 8.66949 33.3484 8.63525 33.2922 8.61189C33.236 8.58852 33.1757 8.5765 33.1148 8.5765C33.0539 8.5765 32.9936 8.58852 32.9374 8.61189C32.8811 8.63525 32.8301 8.66949 32.7871 8.71264C32.7041 8.79475 32.5933 8.84267 32.4766 8.84687C32.36 8.85108 32.246 8.81126 32.1573 8.73534C31.8112 8.44594 31.4537 8.17073 31.0849 7.9097C30.9871 7.84176 30.9189 7.73909 30.8941 7.6226C30.8693 7.5061 30.8899 7.38455 30.9516 7.28268C30.9821 7.23037 31.002 7.17254 31.0101 7.11253C31.0182 7.05251 31.0144 6.99148 30.9988 6.93295C30.9833 6.87442 30.9563 6.81953 30.9195 6.77146C30.8826 6.72339 30.8367 6.68306 30.7842 6.65281L29.7203 6.03997C29.6676 6.0095 29.6094 5.98972 29.5491 5.98179C29.4888 5.97385 29.4274 5.9779 29.3687 5.99372C29.3099 6.00954 29.2548 6.0368 29.2066 6.07395C29.1584 6.1111 29.118 6.1574 29.0877 6.21021C29.0297 6.31094 28.9357 6.38597 28.8246 6.42019C28.7136 6.45441 28.5937 6.44527 28.4891 6.39463C28.0805 6.20737 27.6607 6.0343 27.2351 5.87825C27.1248 5.83711 27.0342 5.75568 26.9816 5.65038C26.9289 5.54508 26.9182 5.42374 26.9514 5.31081C26.9677 5.25212 26.9721 5.19078 26.9645 5.13036C26.9569 5.06994 26.9373 5.01163 26.907 4.95884C26.8766 4.90604 26.8361 4.8598 26.7877 4.82281C26.7393 4.78582 26.6841 4.75881 26.6252 4.74336L25.4393 4.43978C25.3806 4.42389 25.3194 4.41973 25.2591 4.42754C25.1988 4.43534 25.1407 4.45496 25.088 4.48526C25.0353 4.51557 24.989 4.55597 24.952 4.60415C24.9149 4.65233 24.8877 4.70735 24.8719 4.76606C24.8417 4.87834 24.7704 4.97513 24.6721 5.03717C24.5738 5.09922 24.4557 5.12195 24.3414 5.10085C23.8988 5.02425 23.4506 4.9675 22.9966 4.92778C22.8805 4.91849 22.7721 4.86569 22.6932 4.77995C22.6144 4.69421 22.5707 4.58184 22.5711 4.46531C22.5715 4.4041 22.5597 4.34343 22.5364 4.2868C22.5132 4.23018 22.4789 4.17874 22.4357 4.13545C22.3924 4.09217 22.3409 4.05791 22.2843 4.03466C22.2277 4.01141 22.167 3.99963 22.1058 4.00001H20.8888C20.7661 4.00001 20.6485 4.04873 20.5618 4.13546C20.475 4.22219 20.4263 4.33982 20.4263 4.46248C20.4267 4.579 20.3831 4.69137 20.3042 4.77711C20.2253 4.86285 20.1169 4.91565 20.0008 4.92494C19.5469 4.96466 19.0986 5.02141 18.656 5.09801C18.5421 5.11923 18.4244 5.09689 18.3261 5.03542C18.2279 4.97394 18.1563 4.87781 18.1255 4.76606C18.1097 4.70735 18.0825 4.65233 18.0455 4.60415C18.0084 4.55597 17.9622 4.51557 17.9095 4.48526C17.8568 4.45496 17.7986 4.43534 17.7383 4.42754C17.678 4.41973 17.6168 4.42389 17.5581 4.43978L16.3808 4.75471C16.3219 4.77016 16.2666 4.79717 16.2182 4.83416C16.1699 4.87115 16.1293 4.91739 16.099 4.97019C16.0686 5.02298 16.049 5.08129 16.0414 5.14171C16.0338 5.20213 16.0382 5.26347 16.0545 5.32216C16.0878 5.43509 16.077 5.55643 16.0244 5.66173C15.9717 5.76703 15.8811 5.84846 15.7708 5.8896C15.3453 6.04565 14.9197 6.21872 14.5169 6.40597C14.4123 6.45662 14.2924 6.46576 14.1813 6.43154C14.0702 6.39732 13.9762 6.32229 13.9183 6.22156C13.888 6.16875 13.8476 6.12245 13.7994 6.0853C13.7511 6.04815 13.6961 6.02088 13.6373 6.00507C13.5785 5.98925 13.5172 5.9852 13.4568 5.99313C13.3965 6.00107 13.3383 6.02085 13.2856 6.05132L12.2274 6.64998C12.1747 6.67995 12.1284 6.72013 12.0914 6.76818C12.0543 6.81622 12.0272 6.87117 12.0116 6.9298C11.9961 6.98844 11.9923 7.04959 12.0006 7.10969C12.0089 7.16979 12.0291 7.22763 12.06 7.27984C12.117 7.38104 12.1343 7.4998 12.1086 7.61305C12.0829 7.72631 12.0161 7.82597 11.921 7.89268C11.5579 8.1556 11.1985 8.43175 10.843 8.72115C10.7543 8.79708 10.6403 8.83689 10.5236 8.83268C10.407 8.82848 10.2961 8.78057 10.2131 8.69845C10.1702 8.6553 10.1191 8.62106 10.0629 8.5977C10.0067 8.57434 9.94637 8.56231 9.88548 8.56231C9.82459 8.56231 9.76429 8.57434 9.70806 8.5977C9.65183 8.62106 9.60077 8.6553 9.5578 8.69845L8.7067 9.54962C8.66356 9.59259 8.62932 9.64366 8.60596 9.69989C8.5826 9.75613 8.57058 9.81642 8.57058 9.87732C8.57058 9.93821 8.5826 9.99851 8.60596 10.0547C8.62932 10.111 8.66356 10.162 8.7067 10.205C8.78861 10.2875 8.83643 10.3979 8.84064 10.5141C8.84485 10.6303 8.80513 10.7438 8.7294 10.832C8.43435 11.1952 8.15633 11.5565 7.89532 11.9159C7.82862 12.0109 7.72896 12.0778 7.61572 12.1035C7.50247 12.1292 7.38372 12.1119 7.28253 12.0549C7.22987 12.0238 7.17149 12.0035 7.11086 11.9954C7.05023 11.9872 6.98859 11.9914 6.92958 12.0075C6.87057 12.0236 6.81541 12.0515 6.76736 12.0893C6.71932 12.1272 6.67937 12.1744 6.64988 12.228L6.03993 13.2777C6.00946 13.3304 5.98968 13.3886 5.98175 13.449C5.97381 13.5093 5.97787 13.5706 5.99368 13.6294C6.00949 13.6882 6.03676 13.7433 6.0739 13.7915C6.11105 13.8397 6.15735 13.8801 6.21015 13.9104C6.30808 13.9682 6.38112 14.0602 6.41518 14.1687C6.44924 14.2771 6.44189 14.3944 6.39455 14.4977C6.20731 14.9176 6.03426 15.3489 5.87822 15.7631C5.83708 15.8734 5.75566 15.9641 5.65037 16.0167C5.54508 16.0694 5.42374 16.0801 5.31082 16.0469C5.25214 16.0306 5.19081 16.0261 5.13039 16.0338C5.06997 16.0414 5.01167 16.061 4.95888 16.0913C4.90609 16.1217 4.85986 16.1622 4.82287 16.2106C4.78588 16.259 4.75888 16.3142 4.74342 16.3731L4.43986 17.5591C4.42398 17.6178 4.41982 17.679 4.42762 17.7393C4.43543 17.7996 4.45504 17.8578 4.48534 17.9105C4.51565 17.9632 4.55604 18.0094 4.60422 18.0465C4.6524 18.0835 4.70741 18.1108 4.76612 18.1265C4.87839 18.1567 4.97518 18.2281 5.03721 18.3264C5.09925 18.4247 5.12198 18.5428 5.10088 18.6571C5.02429 19.0997 4.96755 19.548 4.92783 20.002C4.91854 20.1181 4.86574 20.2265 4.78001 20.3054C4.69427 20.3843 4.58191 20.4279 4.4654 20.4275C4.40443 20.4272 4.34399 20.4388 4.28756 20.4619C4.23113 20.485 4.17982 20.519 4.13657 20.562C4.09333 20.605 4.05902 20.6561 4.0356 20.7124C4.01218 20.7687 4.00013 20.829 4.00013 20.89V22.1072C3.99976 22.1681 4.01144 22.2286 4.03451 22.285C4.05759 22.3415 4.09159 22.3928 4.13457 22.436C4.17754 22.4793 4.22865 22.5136 4.28494 22.537C4.34123 22.5604 4.40159 22.5725 4.46256 22.5725C4.5814 22.5716 4.69602 22.6164 4.78265 22.6978C4.86928 22.7792 4.92127 22.8907 4.92783 23.0094C4.96755 23.4634 5.02429 23.9116 5.10088 24.3543C5.1189 24.4668 5.0947 24.5821 5.03291 24.678C4.97112 24.7738 4.87611 24.8434 4.76612 24.8735C4.70741 24.8893 4.6524 24.9165 4.60422 24.9535C4.55604 24.9906 4.51565 25.0368 4.48534 25.0895C4.45504 25.1422 4.43543 25.2004 4.42762 25.2607C4.41982 25.321 4.42398 25.3822 4.43986 25.4409L4.75477 26.6184C4.77022 26.6773 4.79723 26.7325 4.83422 26.7809C4.8712 26.8293 4.91744 26.8698 4.97023 26.9002C5.02302 26.9305 5.08132 26.9501 5.14174 26.9577C5.20216 26.9654 5.26349 26.9609 5.32217 26.9446C5.43509 26.9114 5.55642 26.9222 5.66172 26.9748C5.76701 27.0275 5.84843 27.1181 5.88957 27.2284C6.0456 27.6539 6.21866 28.0795 6.4059 28.4824C6.45655 28.587 6.46568 28.7069 6.43147 28.818C6.39725 28.9291 6.32223 29.0231 6.2215 29.0811C6.1687 29.1114 6.1224 29.1518 6.08525 29.2C6.04811 29.2482 6.02084 29.3033 6.00503 29.3621C5.98921 29.4209 5.98516 29.4822 5.9931 29.5425C6.00103 29.6029 6.0208 29.6611 6.05128 29.7138L6.66123 30.7692C6.69148 30.8217 6.7318 30.8677 6.77987 30.9045C6.82794 30.9413 6.88282 30.9683 6.94134 30.9839C6.99987 30.9994 7.06089 31.0032 7.12091 30.9951C7.18092 30.987 7.23874 30.9671 7.29104 30.9366C7.39224 30.8796 7.51099 30.8623 7.62423 30.888C7.73748 30.9137 7.83713 30.9806 7.90384 31.0756C8.16484 31.4539 8.44003 31.8114 8.7294 32.1481C8.80532 32.2368 8.84513 32.3508 8.84093 32.4675C8.83672 32.5841 8.78881 32.695 8.7067 32.778C8.66356 32.8209 8.62932 32.872 8.60596 32.9282C8.5826 32.9845 8.57058 33.0448 8.57058 33.1057C8.57058 33.1666 8.5826 33.2269 8.60596 33.2831C8.62932 33.3393 8.66356 33.3904 8.7067 33.4334L9.5578 34.2845C9.60077 34.3277 9.65183 34.3619 9.70806 34.3853C9.76429 34.4087 9.82459 34.4207 9.88548 34.4207C9.94637 34.4207 10.0067 34.4087 10.0629 34.3853C10.1191 34.3619 10.1702 34.3277 10.2131 34.2845C10.2961 34.2024 10.407 34.1545 10.5236 34.1503C10.6403 34.1461 10.7543 34.1859 10.843 34.2618C11.1891 34.5512 11.5465 34.8265 11.9153 35.0875C12.0104 35.1542 12.0773 35.2538 12.103 35.3671C12.1286 35.4804 12.1113 35.5991 12.0544 35.7003C12.0218 35.7535 12.0004 35.8128 11.9915 35.8746C11.9826 35.9363 11.9863 35.9993 12.0025 36.0595C12.0187 36.1198 12.047 36.1761 12.0857 36.2251C12.1243 36.2741 12.1726 36.3146 12.2274 36.3444L13.2828 36.9544C13.3355 36.9848 13.3937 37.0046 13.454 37.0126C13.5143 37.0205 13.5757 37.0164 13.6344 37.0006C13.6932 36.9848 13.7483 36.9575 13.7965 36.9204C13.8447 36.8832 13.8851 36.8369 13.9154 36.7841C13.9734 36.6834 14.0674 36.6084 14.1785 36.5741C14.2895 36.5399 14.4094 36.5491 14.514 36.5997C14.9226 36.787 15.3424 36.96 15.768 37.1161C15.8783 37.1572 15.9689 37.2387 16.0215 37.344C16.0742 37.4493 16.0849 37.5706 16.0517 37.6835C16.0358 37.7422 16.0316 37.8035 16.0394 37.8638C16.0472 37.924 16.0669 37.9822 16.0972 38.0349C16.1275 38.0876 16.1679 38.1338 16.216 38.1709C16.2642 38.208 16.3192 38.2352 16.3779 38.251L17.5553 38.5659C17.614 38.5818 17.6752 38.586 17.7355 38.5782C17.7958 38.5703 17.8539 38.5507 17.9066 38.5204C17.9593 38.4901 18.0055 38.4497 18.0426 38.4015C18.0797 38.3534 18.1069 38.2983 18.1227 38.2396C18.1529 38.1274 18.2242 38.0306 18.3225 37.9685C18.4208 37.9065 18.5389 37.8837 18.6532 37.9048C19.0958 37.9786 19.544 38.0382 19.9979 38.0779C20.1141 38.0872 20.2224 38.14 20.3013 38.2257C20.3802 38.3115 20.4239 38.4239 20.4235 38.5404C20.4235 38.663 20.4722 38.7807 20.5589 38.8674C20.6457 38.9541 20.7633 39.0028 20.8859 39.0028H22.103C22.164 39.0032 22.2244 38.9915 22.2808 38.9685C22.3373 38.9454 22.3886 38.9114 22.4318 38.8684C22.4751 38.8254 22.5094 38.7743 22.5328 38.718C22.5562 38.6617 22.5683 38.6013 22.5683 38.5404C22.5679 38.4239 22.6115 38.3115 22.6904 38.2257C22.7693 38.14 22.8777 38.0872 22.9938 38.0779C23.4477 38.0382 23.896 37.9786 24.3385 37.9048C24.4529 37.8837 24.5709 37.9065 24.6692 37.9685C24.7676 38.0306 24.8389 38.1274 24.8691 38.2396C24.8849 38.2983 24.9121 38.3534 24.9491 38.4015C24.9862 38.4497 25.0324 38.4901 25.0851 38.5204C25.1378 38.5507 25.196 38.5703 25.2563 38.5782C25.3165 38.586 25.3778 38.5818 25.4365 38.5659L26.6138 38.251C26.6725 38.2352 26.7275 38.208 26.7757 38.1709C26.8239 38.1338 26.8643 38.0876 26.8946 38.0349C26.9249 37.9822 26.9445 37.924 26.9523 37.8638C26.9601 37.8035 26.956 37.7422 26.9401 37.6835C26.9068 37.5706 26.9176 37.4493 26.9702 37.344C27.0229 37.2387 27.1135 37.1572 27.2238 37.1161C27.6493 36.96 28.0749 36.787 28.4777 36.5997C28.5823 36.5491 28.7022 36.5399 28.8133 36.5741C28.9244 36.6084 29.0184 36.6834 29.0763 36.7841C29.1066 36.8369 29.147 36.8832 29.1952 36.9204C29.2435 36.9575 29.2985 36.9848 29.3573 37.0006C29.4161 37.0164 29.4774 37.0205 29.5378 37.0126C29.5981 37.0046 29.6563 36.9848 29.709 36.9544L30.7757 36.3444C30.8282 36.3138 30.8743 36.2733 30.9111 36.2249C30.948 36.1766 30.975 36.1215 30.9905 36.0627C31.0061 36.004 31.0099 35.9427 31.0017 35.8825C30.9936 35.8222 30.9737 35.7642 30.9431 35.7117C30.8861 35.6105 30.8688 35.4917 30.8945 35.3785C30.9202 35.2652 30.987 35.1655 31.0821 35.0988C31.4603 34.8378 31.8178 34.5626 32.1545 34.2732C32.2431 34.1973 32.3571 34.1575 32.4738 34.1617C32.5905 34.1659 32.7013 34.2138 32.7843 34.2959C32.8272 34.339 32.8783 34.3733 32.9345 34.3966C32.9908 34.42 33.0511 34.432 33.1119 34.432C33.1728 34.432 33.2331 34.42 33.2894 34.3966C33.3456 34.3733 33.3967 34.339 33.4396 34.2959L34.2907 33.4447C34.3339 33.4018 34.3681 33.3507 34.3915 33.2944C34.4148 33.2382 34.4269 33.1779 34.4269 33.117C34.4269 33.0561 34.4148 32.9958 34.3915 32.9396C34.3681 32.8834 34.3339 32.8323 34.2907 32.7893C34.2086 32.7063 34.1607 32.5955 34.1565 32.4788C34.1523 32.3621 34.1921 32.2482 34.268 32.1595C34.5574 31.8133 34.8326 31.4558 35.0936 31.087C35.1603 30.9919 35.2599 30.9251 35.3732 30.8994C35.4864 30.8737 35.6052 30.891 35.7064 30.948C35.7589 30.9786 35.8169 30.9985 35.8772 31.0066C35.9374 31.0148 35.9986 31.011 36.0574 30.9954C36.1162 30.9799 36.1713 30.9529 36.2196 30.916C36.2679 30.8792 36.3085 30.8331 36.339 30.7806L36.949 29.7251C36.9795 29.6724 36.9992 29.6142 37.0072 29.5539C37.0151 29.4935 37.011 29.4322 36.9952 29.3734C36.9794 29.3146 36.9522 29.2596 36.915 29.2113C36.8779 29.1631 36.8316 29.1227 36.7788 29.0924C36.678 29.0344 36.603 28.9405 36.5688 28.8294C36.5346 28.7183 36.5437 28.5984 36.5944 28.4938C36.7816 28.0852 36.9547 27.6653 37.1107 27.2397C37.1518 27.1294 37.2333 27.0388 37.3385 26.9862C37.4438 26.9335 37.5652 26.9227 37.6781 26.956C37.7368 26.9719 37.798 26.976 37.8583 26.9682C37.9186 26.9604 37.9767 26.9408 38.0294 26.9105C38.0821 26.8802 38.1283 26.8398 38.1654 26.7916C38.2025 26.7434 38.2297 26.6884 38.2455 26.6297L38.5604 25.4523C38.5763 25.3936 38.5804 25.3323 38.5726 25.272C38.5648 25.2118 38.5452 25.1536 38.5149 25.1009C38.4846 25.0482 38.4442 25.002 38.396 24.9649C38.3479 24.9278 38.2928 24.9006 38.2341 24.8848C38.1219 24.8547 38.0251 24.7833 37.963 24.685C37.901 24.5867 37.8783 24.4686 37.8994 24.3543C37.9731 23.9116 38.0327 23.4634 38.0724 23.0094C38.0817 22.8933 38.1345 22.7849 38.2203 22.706C38.306 22.6271 38.4184 22.5835 38.5349 22.5838C38.5968 22.5839 38.6581 22.5714 38.7152 22.5473C38.7722 22.5232 38.8238 22.4879 38.867 22.4434C38.9101 22.3989 38.9439 22.3463 38.9663 22.2885C38.9886 22.2308 38.9992 22.1691 38.9973 22.1072Z" fill="#F7A92F"/>
<path d="M38.1291 25.4988C40.3375 16.3134 34.6822 7.07676 25.4975 4.86816C16.3129 2.65955 7.07701 8.31534 4.86858 17.5007C2.66016 26.6861 8.31549 35.9228 17.5001 38.1314C26.6848 40.34 35.9207 34.6842 38.1291 25.4988Z" fill="#FBE35C"/>
<path d="M21.4986 36.2565C29.6477 36.2565 36.2538 29.6498 36.2538 21.5001C36.2538 13.3503 29.6477 6.74365 21.4986 6.74365C13.3495 6.74365 6.74341 13.3503 6.74341 21.5001C6.74341 29.6498 13.3495 36.2565 21.4986 36.2565Z" fill="#F7A92F"/>
<path d="M29.1414 29.1437C33.3626 24.9222 33.3626 18.0778 29.1414 13.8563C24.9202 9.6348 18.0764 9.6348 13.8552 13.8563C9.63408 18.0778 9.63408 24.9222 13.8552 29.1437C18.0764 33.3652 24.9202 33.3652 29.1414 29.1437Z" fill="#FBE35C"/>
<g style="mix-blend-mode:multiply" opacity="0.3">
<path d="M38.5377 20.4163C38.4211 20.4153 38.3091 20.3708 38.2236 20.2916C38.1381 20.2123 38.0852 20.104 38.0753 19.9878C38.0356 19.5339 37.9788 19.0856 37.9022 18.643C37.8818 18.5287 37.9048 18.411 37.9668 18.3128C38.0287 18.2147 38.1251 18.1432 38.237 18.1124C38.3557 18.0805 38.4569 18.0029 38.5185 17.8966C38.5802 17.7903 38.5973 17.6639 38.5661 17.545L38.2512 16.3704C38.2354 16.3117 38.2082 16.2567 38.1711 16.2085C38.134 16.1603 38.0878 16.1199 38.0351 16.0896C37.9824 16.0593 37.9243 16.0397 37.864 16.0319C37.8037 16.0241 37.7425 16.0282 37.6838 16.0441C37.5772 16.0712 37.4645 16.0599 37.3654 16.0121C37.2663 15.9644 37.1872 15.8833 37.1419 15.7831C36.6057 26.0822 27.8649 34.5088 17.4532 34.5088C14.4632 34.5057 11.5147 33.8084 8.84005 32.4716C8.83615 32.5884 8.78737 32.6992 8.70388 32.7809C8.61811 32.8684 8.57007 32.9861 8.57007 33.1086C8.57007 33.2311 8.61811 33.3488 8.70388 33.4363L9.55498 34.2875C9.642 34.3731 9.75917 34.421 9.88123 34.421C10.0033 34.421 10.1205 34.3731 10.2075 34.2875C10.2908 34.2059 10.4015 34.1584 10.518 34.1542C10.6345 34.15 10.7483 34.1894 10.8373 34.2648C11.1834 34.5485 11.5409 34.8322 11.9097 35.0932C12.0058 35.1591 12.0735 35.2588 12.0993 35.3724C12.125 35.486 12.107 35.6052 12.0487 35.7061C12.0177 35.7595 11.9977 35.8186 11.9899 35.8799C11.9821 35.9412 11.9866 36.0035 12.0033 36.063C12.02 36.1225 12.0484 36.1781 12.0869 36.2264C12.1254 36.2748 12.1732 36.3149 12.2274 36.3444L13.28 36.9516C13.3325 36.9822 13.3905 37.0021 13.4507 37.0103C13.511 37.0184 13.5722 37.0146 13.631 36.9991C13.6897 36.9835 13.7449 36.9565 13.7932 36.9197C13.8415 36.8828 13.8821 36.8368 13.9126 36.7842C13.9711 36.6833 14.0654 36.608 14.1768 36.5733C14.2882 36.5386 14.4086 36.5471 14.514 36.597C14.9226 36.7861 15.3396 36.9592 15.7652 37.1162C15.8755 37.1573 15.9661 37.2387 16.0187 37.344C16.0713 37.4493 16.0821 37.5707 16.0489 37.6836C16.0177 37.8025 16.0348 37.9289 16.0964 38.0352C16.1581 38.1415 16.2593 38.2191 16.3779 38.2511L17.5525 38.566C17.6713 38.5972 17.7977 38.5801 17.904 38.5184C18.0103 38.4568 18.0879 38.3556 18.1199 38.2369C18.1506 38.1249 18.2221 38.0286 18.3202 37.9666C18.4184 37.9047 18.5361 37.8817 18.6504 37.9021C19.093 37.9787 19.5412 38.0354 19.9951 38.0752C20.1113 38.085 20.2196 38.1379 20.2988 38.2235C20.378 38.309 20.4225 38.421 20.4235 38.5376C20.4235 38.6603 20.4722 38.7779 20.5589 38.8646C20.6457 38.9514 20.7633 39.0001 20.8859 39.0001H22.103C22.1637 39.0001 22.2239 38.9881 22.28 38.9649C22.3361 38.9416 22.387 38.9076 22.43 38.8646C22.4729 38.8217 22.507 38.7707 22.5302 38.7146C22.5535 38.6585 22.5654 38.5984 22.5654 38.5376C22.5593 38.4139 22.6024 38.2928 22.6853 38.2008C22.7683 38.1088 22.8843 38.0534 23.008 38.0468C23.4619 38.0071 23.9102 37.9503 24.3527 37.8737C24.4669 37.8539 24.5844 37.8772 24.6824 37.9391C24.7804 38.0009 24.8519 38.0969 24.8833 38.2085C24.9152 38.3272 24.9928 38.4284 25.0991 38.4901C25.2054 38.5517 25.3318 38.5688 25.4507 38.5376L26.6252 38.2227C26.6839 38.2069 26.7389 38.1797 26.7871 38.1426C26.8352 38.1055 26.8756 38.0593 26.9059 38.0066C26.9362 37.9539 26.9559 37.8958 26.9637 37.8355C26.9715 37.7752 26.9673 37.7139 26.9514 37.6552C26.9182 37.5423 26.9289 37.421 26.9816 37.3157C27.0342 37.2104 27.1248 37.1289 27.2351 37.0878C27.6607 36.9308 28.0777 36.7577 28.4862 36.5686C28.5917 36.5187 28.7121 36.5103 28.8235 36.5449C28.9349 36.5796 29.0292 36.6549 29.0877 36.7558C29.1182 36.8084 29.1588 36.8544 29.2071 36.8913C29.2554 36.9282 29.3106 36.9552 29.3693 36.9707C29.4281 36.9863 29.4893 36.9901 29.5495 36.9819C29.6098 36.9738 29.6678 36.9538 29.7203 36.9232L30.7785 36.3444C30.8313 36.3142 30.8776 36.2737 30.9148 36.2255C30.9519 36.1773 30.9792 36.1222 30.995 36.0634C31.0108 36.0047 31.0149 35.9433 31.0069 35.883C30.999 35.8226 30.9792 35.7644 30.9487 35.7117C30.8909 35.611 30.8727 35.4923 30.8979 35.3789C30.9231 35.2655 30.9898 35.1656 31.0849 35.0989C31.4566 34.8379 31.814 34.5598 32.1601 34.2704C32.2484 34.1947 32.3619 34.155 32.4781 34.1592C32.5943 34.1634 32.7046 34.2112 32.7871 34.2931C32.8746 34.3789 32.9923 34.427 33.1148 34.427C33.2373 34.427 33.355 34.3789 33.4425 34.2931L34.2936 33.442C34.3367 33.399 34.371 33.3479 34.3943 33.2917C34.4177 33.2355 34.4297 33.1752 34.4297 33.1143C34.4297 33.0534 34.4177 32.9931 34.3943 32.9368C34.371 32.8806 34.3367 32.8295 34.2936 32.7866C34.2117 32.704 34.1638 32.5937 34.1596 32.4775C34.1554 32.3613 34.1951 32.2478 34.2709 32.1595C34.5546 31.8134 34.8383 31.4559 35.0993 31.0842C35.166 30.9891 35.2658 30.9224 35.3792 30.8972C35.4926 30.872 35.6114 30.8901 35.7121 30.948C35.7648 30.9785 35.8229 30.9983 35.8833 31.0062C35.9436 31.0142 36.005 31.0101 36.0637 30.9943C36.1225 30.9785 36.1776 30.9512 36.2258 30.9141C36.274 30.8769 36.3144 30.8306 36.3447 30.7778L36.9518 29.7252C36.9824 29.6727 37.0024 29.6146 37.0105 29.5544C37.0186 29.4942 37.0148 29.4329 36.9993 29.3742C36.9837 29.3154 36.9568 29.2603 36.9199 29.2119C36.883 29.1636 36.837 29.123 36.7844 29.0925C36.6845 29.0331 36.6102 28.9385 36.5762 28.8274C36.5421 28.7162 36.5506 28.5963 36.6 28.491C36.7901 28.0824 36.9603 27.6654 37.1192 27.2398C37.1604 27.1295 37.2418 27.0389 37.3471 26.9862C37.4524 26.9336 37.5737 26.9228 37.6866 26.9561C37.7453 26.972 37.8065 26.9761 37.8668 26.9683C37.9271 26.9605 37.9853 26.9409 38.038 26.9106C38.0907 26.8803 38.1369 26.8399 38.1739 26.7917C38.211 26.7435 38.2382 26.6885 38.254 26.6298L38.5689 25.4552C38.6001 25.3363 38.583 25.2099 38.5214 25.1036C38.4597 24.9973 38.3585 24.9197 38.2398 24.8877C38.1279 24.857 38.0315 24.7855 37.9696 24.6874C37.9077 24.5892 37.8846 24.4714 37.9051 24.3572C37.9817 23.9146 38.0384 23.4663 38.0781 23.0123C38.088 22.8962 38.1409 22.7878 38.2264 22.7086C38.3119 22.6294 38.424 22.5849 38.5405 22.5839C38.6632 22.5839 38.7808 22.5352 38.8675 22.4485C38.9543 22.3617 39.003 22.2441 39.003 22.1214V20.8787C39.003 20.8178 38.9909 20.7574 38.9675 20.7011C38.9441 20.6448 38.9098 20.5937 38.8665 20.5507C38.8233 20.5077 38.772 20.4737 38.7155 20.4507C38.6591 20.4276 38.5987 20.4159 38.5377 20.4163Z" fill="#F7A92F"/>
</g>
<g style="mix-blend-mode:multiply" opacity="0.3">
<path d="M38.2227 17.8854C38.2864 18.4886 38.3186 19.0947 38.3192 19.7012C38.3192 29.2768 30.3302 37.2693 20.7554 37.2693C18.0735 37.2522 15.4309 36.6233 13.0288 35.4306C10.6267 34.2378 8.52844 32.5125 6.8938 30.3862C8.99631 33.839 12.2537 36.4355 16.0881 37.7152C19.9226 38.9949 24.0863 38.875 27.8408 37.3769C31.5954 35.8788 34.698 33.0992 36.5985 29.5312C38.4989 25.9632 39.0744 21.8373 38.2227 17.8854Z" fill="#FBE35C"/>
</g>
<g style="mix-blend-mode:multiply" opacity="0.3">
<path d="M22.0008 8.30692C24.4975 8.3239 26.9542 8.93517 29.1678 10.0902C31.3814 11.2451 33.2882 12.9106 34.7304 14.9489C33.3005 12.0551 30.9611 9.71025 28.0709 8.27361C25.1807 6.83698 21.8991 6.38789 18.7292 6.99519C15.5593 7.6025 12.6761 9.23267 10.5214 11.6358C8.36669 14.039 7.05949 17.0825 6.80017 20.2999C8.48251 13.4849 14.7267 8.30692 22.0008 8.30692Z" fill="#F7A92F"/>
</g>
<g style="mix-blend-mode:overlay" opacity="0.3">
<path d="M12.0259 21.9115C11.913 21.9115 11.8048 21.8666 11.725 21.7868C11.6452 21.707 11.6003 21.5988 11.6003 21.4859C11.6033 18.8607 12.6475 16.3438 14.5036 14.4875C16.3598 12.6312 18.8764 11.587 21.5015 11.584C21.6143 11.584 21.7226 11.6288 21.8024 11.7086C21.8822 11.7884 21.927 11.8967 21.927 12.0096C21.927 12.1224 21.8822 12.2307 21.8024 12.3105C21.7226 12.3903 21.6143 12.4352 21.5015 12.4352C19.1022 12.4382 16.802 13.3927 15.1054 15.0894C13.4089 16.7861 12.4544 19.0864 12.4514 21.4859C12.4514 21.5988 12.4066 21.707 12.3268 21.7868C12.247 21.8666 12.1388 21.9115 12.0259 21.9115Z" fill="white"/>
</g>
<g style="mix-blend-mode:overlay" opacity="0.3">
<path d="M5.23707 21.9114C5.12421 21.9114 5.01597 21.8666 4.93616 21.7868C4.85636 21.7069 4.81152 21.5987 4.81152 21.4858C4.81678 17.0606 6.57688 12.8181 9.70573 9.68903C12.8346 6.55993 17.0767 4.79969 21.5016 4.79443C21.6144 4.79443 21.7227 4.83927 21.8025 4.91908C21.8823 4.9989 21.9271 5.10715 21.9271 5.22002C21.9271 5.33289 21.8823 5.44114 21.8025 5.52095C21.7227 5.60076 21.6144 5.6456 21.5016 5.6456C17.3022 5.65011 13.2761 7.32043 10.3067 10.2901C7.33732 13.2597 5.66713 17.2861 5.66262 21.4858C5.66262 21.5987 5.61779 21.7069 5.53798 21.7868C5.45818 21.8666 5.34994 21.9114 5.23707 21.9114Z" fill="white"/>
</g>
<g style="mix-blend-mode:multiply" opacity="0.3">
<path d="M31.4167 17.1761C31.5212 17.7911 31.5744 18.4136 31.5756 19.0374C31.549 22.0549 30.3392 24.9414 28.2063 27.076C26.0735 29.2105 23.1881 30.4226 20.1709 30.4515C17.2962 30.4421 14.5322 29.3419 12.4373 27.3731C13.9131 29.6498 16.1912 31.2882 18.819 31.963C21.4468 32.6377 24.2323 32.2995 26.6223 31.0154C29.0124 29.7313 30.8321 27.5954 31.7203 25.0316C32.6085 22.4678 32.5001 19.6637 31.4167 17.1761Z" fill="#FBE35C"/>
</g>
</svg>
